<svg xmlns="http://www.w3.org/2000/svg" viewBox="0 0 280 520" role="img" aria-label="Public feed mockup">
  <defs>
    <filter id="pubShadow" x="-20%" y="-10%" width="140%" height="120%">
      <feDropShadow dx="0" dy="12" stdDeviation="16" flood-color="#1a0836" flood-opacity="0.16"/>
    </filter>
  </defs>
  <g filter="url(#pubShadow)" transform="translate(15 20)">
    <rect x="0" y="0" width="250" height="480" rx="36" fill="#111827"/>
    <rect x="8" y="8" width="234" height="464" rx="28" fill="#ffffff"/>
    <rect x="95" y="18" width="60" height="10" rx="5" fill="#111827"/>
    <text x="24" y="70" font-family="Inter, sans-serif" font-size="13" font-weight="500" fill="#6B2C91">PUBLIC</text>
    <text x="24" y="94" font-family="Inter, sans-serif" font-size="20" font-weight="800" fill="#111827">Your feed</text>
    <g transform="translate(16 120)">
      <rect x="0" y="0" width="218" height="88" rx="12" fill="#ffffff" stroke="#e5e7eb"/>
      <circle cx="22" cy="22" r="12" fill="#e5e7eb"/>
      <rect x="42" y="14" width="72" height="8" rx="4" fill="#4b5563"/>
      <rect x="42" y="28" width="44" height="6" rx="3" fill="#9ca3af"/>
      <rect x="16" y="50" width="186" height="6" rx="3" fill="#374151"/>
      <rect x="16" y="62" width="140" height="6" rx="3" fill="#374151"/>
    </g>
    <g transform="translate(16 220)">
      <rect x="0" y="0" width="218" height="88" rx="12" fill="#ffffff" stroke="#e5e7eb"/>
      <circle cx="22" cy="22" r="12" fill="#e5e7eb"/>
      <rect x="42" y="14" width="64" height="8" rx="4" fill="#4b5563"/>
      <rect x="42" y="28" width="52" height="6" rx="3" fill="#9ca3af"/>
      <rect x="16" y="50" width="186" height="6" rx="3" fill="#374151"/>
      <rect x="16" y="62" width="120" height="6" rx="3" fill="#374151"/>
    </g>
    <g transform="translate(16 320)">
      <rect x="0" y="0" width="218" height="88" rx="12" fill="#ffffff" stroke="#e5e7eb"/>
      <circle cx="22" cy="22" r="12" fill="#e5e7eb"/>
      <rect x="42" y="14" width="80" height="8" rx="4" fill="#4b5563"/>
      <rect x="42" y="28" width="40" height="6" rx="3" fill="#9ca3af"/>
      <rect x="16" y="50" width="186" height="6" rx="3" fill="#374151"/>
      <rect x="16" y="62" width="160" height="6" rx="3" fill="#374151"/>
    </g>
  </g>
</svg>
